<mxfile host="65bd71144e">
    <diagram id="vH30VG0-RRCnhQjwCqfQ" name="PÃ¡gina-1">
        <mxGraphModel dx="1086" dy="608" grid="1" gridSize="10" guides="1" tooltips="1" connect="1" arrows="1" fold="1" page="1" pageScale="1" pageWidth="827" pageHeight="1169" math="0" shadow="0">
            <root>
                <mxCell id="0"/>
                <mxCell id="1" parent="0"/>
                <mxCell id="2" value="" style="shape=image;verticalLabelPosition=bottom;labelBackgroundColor=#ffffff;verticalAlign=top;aspect=fixed;imageAspect=0;image=data:image/png,iVBORw0KGgoAAAANSUhEUgAAAkUAAAAmCAYAAADKge8cAAAAAXNSR0IArs4c6QAAAARnQU1BAACxjwv8YQUAAAAJcEhZcwAADsMAAA7DAcdvqGQAADX9SURBVHhe7Z0HeJRl9vZ/00smldB7h9BDS6WDghQRBHtH1q5YdtWV1bVXEBUEUVBEkY6A0ltIofcSahJaCKTX6d95Q1ACmSDI7v/b3fe+Li6SzMxTTrnPfd42muTkZC8qVKhQoUKFChX/49CW/a9ChQoVKlSoUPE/DVUUqVChQoUKFSpUCFRRpEKFChUqVKhQIVBFkQoVKlSoUKFChUAVRSpUqFChQoUKFQJVFKlQoUKFChUqVAhUUaRChQoVKlSoUCFQRZEKFSpUqFChQoVAFUUqVKhQoUKFChUCVRSpUKFChQoVKlQIVFGkQoUKFSpUqFAhUEWRChUqVKhQoUKFQBVFKlSoUKFChQoVAlUUqVChQoUKFSpUCDTJycnesp+vERp0BgM6TdmvAo/LgctT9ksl0OpNmExaXEXFOK9zdl/Q6AwYLlmU1+uRdblw38h5tHpMZhN6nRadp4S8QmfZCyr+ndBIHJlNRrQaCTpHEYWOGxxMKlT8N0BnxGJW8kSD1lVIfskfIOl/I5R6oOSxRvLYay+i6EYXBcG/Y45y0JTVCL2urEY4yl64XmjQm8yYjAY0XieOwmL+a+nuqvGqLbOFHq3YokRscSPdeZ2iSBxkNZN9PJnsEq8EmogPWah/jQZUNbsrFEYagwWLyYDLWUJR+gG2Jp2j6pCetHDeuA0pgsiddZTUXB163Oi14NL6U6VWNar76bAXlfz5QFIEkTONjUsTOZmVzgbrYL5+sFGpMNKZrJhwUGx3iT1U/CuhCCLv6Y0sTzhMxskcDP2e4+HWDgrdBqwmDY5iO67rcoIOo9WExlGM/foGUHHD8a/zyX99zkqBMeTuYvmq3Zw7l87psKcZ21tXQaH5v4l7Raw409axIvGI5HER/sOe4p6GzhsqWv4dc5SDIoi8p4lfEsep7LMsdfdm1hNt/oQwUgSRl9MbF7HteAY7DgYz4u17CRNf/WcIo2uIravGqyKInKStW8TOtHNsPlSTUW+PpIH9xumI6zp9pjEE4DnyDc9360vffv0Y1Lcfffs+yPfJTvyMlxw6KoMiiDRHFjDtzdE8eksU7SMGcP+MZExul7j7BkKjFRVdyL4pD9Knb1/G/hAvgfkZ9zdvxJCXF3LKbKWC5V0bvB5c1KR5ewfL351ASM3q6LxuIVcLhXsWsmBrJmaz/sbuS8WV8LjwhIbTxrGBtz47Tmhdt/jGgMW+jxWLt5NrMaO/ZidI8lrs7P91CVtyzZivfQAf0GGQrkaNieuBb5/ojMZyR6qvFdeds0LcxhsWG/9iCDe5rS1oXeUYkz+KJ7i2Bo3n8urxr4r7q8Mreayt0YXWjjW8M/EE1apL8buhh/X/PXOUh9QITyjN2ntY8danhNauKxYWfvoT8Lg8BLaKIH/RR3x71EoDnfj1X7mFG4ZrjK2rxqtXoX6qtIskb9En/JgRSF3tjbXFdYgiLQbZ5LYZX7FefqsVWo3gKoFQsy8RraTnqkC6ep3FeJuO4KG/v0aPGgUY5W+du0fQ3KK5oYe9vC47poY9iQ5vLL8NYfgT9/L0q5OZs+Bpimc8w5s/pmG16S+8+XqhnI6zVSGw4DynZY6oTlYcdg06XS5rRz/F08Pnk+IWNfsfwpn/qfB6PJiDgik5txb6dScmSIvT6Efm+ok8/Phb/HrMfu3krjPhzVzHF48+xjtLU9DfEHGrwxrgIHlXCl5VGF07fPhEZw2gOHkfJ4RNrk8Y6a4vZ3VWTIXJ7EzhP0MYedxog6pizUrhVMNudG1kwHE56f5L4v6PQcljU2AQhWcSYGAPogO12Cs40/Bn8O+YoxyUGmENJaA4i7PcRHRXG86SPyOKRAh4rPj7F5BTAL2Gd6OqIgTKXv3/GtcaW1eNV8UWNmz+2ZzPgFsGdSVY4xYZeuNwzaJIY7ChOzGVn3KfZ0vaCRK3bmLj5u0cT/g73fROin2szut04ChOJzvLKzTWhC4RTTG6nTf4kLUO7GfYsWmNRE4E0SFasnLy0VavRR159fSJdFmf9nenaI1YbP742Wz4Ww3ljaHRY7YFEOBvFfIzipjyw1T6Bg16vZvUdZ+T3CuaSCnGdmUTnhBG7DrPmROjqeNy4DFasFjK/zMbZX0X4Wt8jXJ40CK/27AYZKXyPmWNVuXniiBB5+df9t4yaA1mLGZlPxr52YTFT4LIYpDfRLyZ/CSgLu6lYmi0elH3Vmw2KwaNcujTX372kzWUfehqa1QOH/uV2dXPpHjlMsg6jFZZd4Akut+V4uUqflHG9vcPRFtygI2izNtGRVHLJC4Q8V3tjjmkpszlgboaiiXSLuxdSUSdfE7sbbu4nrLf/Yy/ja/Fha7anUxKS2XVQ3UoLPg9PrXiT2W9ih0spXa4um01OjP+VauS+uPf6L84lCpWzW/jKaf/rGXj+ZmutFBF0OjNpWsIEJvqZT02P3O5vSi2+s2SWgMmi5mLLruIK/dRAS7zb6mvKvKFggp8pZG5L8SPReJHWbesVeLcoJGxfrPZdfqkUApcUC10qT/S5uYN2Kw6NGVGvWgff6tR1i/zi5187FAZ+LKcdYlovTSmf1/bhTFkteYgme8085/8kE0BViwXJxb8kfjQWy7Y6KKPNDol7y98xnZ5sfDJDzoM4hvF3hYlbyT/rf6SnxdjqOx3P+PFnevQus6SsGEdREXQOVB8Imu6NOZ8xr3PNVwjR11ERXmtMeAt2UtCPETGRhCi9VxR7JXTXxbJeZv5kjVLA6Rwy8VdKvDp/0rm8JWHvmO47A0VQokR8aXsMcBP6s3aT9gTHUtMVT2/aaLKuK0C/JbzwQG4jsex9mAMvSPkZ3vZgJVxbZn/FI61GAyYzcrhiCvxZ+1bma18c6rkg1lyQ9ZtlWbRaJX/S4Pr6vGqMRpxH05k3Yle9OxqxX7RFoKK+U3xi4whcym5aDCbKz1jdDWfXAaNJKSTrd8tZMG8MQwf8AjvzN2HKdiCx+FbECnQGIw407awZYeU6rrRdG1llM38Tio3BFoTnrwkNv0KXaMjqSOGNIUEkrVlE8vk5fDwJli9yrUDsg9/UaOeFJZ98hwPjnyC6WvSpKO/QMbK6UE/YxabPxpEzVvncqr4OMu/nkeiUyEFIa+Sw8QnQqPIGGqZtWg92RzZsox5X37P6mwlQGxk7Y9jw/oNv/9bt441e3MxiDDyOb5Lir2phDP7N7Lsh++ZdzSIEP9cEr6bwsxUIaHLMlJjDCLIuYf5X0zll/MivOR1rUF8cXozKxNTcQtxO04fIHHpLPHTEQJq16Rk1w9M/mwuB7T+FQojjSStwZnOwcSlfD95OWermUmb9QqvvzGJNWkuqgh5Gw2+1+gfEIxVn8OuGS/z0MDb+XjBIbTBfvx2fE58ZAmw4TmymPce6kPvh75gW56pTBj9Ab9Y8tg56X4ihkxlV3IiibvaMzg2FNwOsg5vY9X3E/gqrhCtRUdR2m7iFs/ko6UZBNfQsW/Wu0z4aTcaWyCBwS72zHqfzxYexKQUZSF9d/Zhtq2YwcTvEjnpLRPPQqgW6TK1acsY/9QI7nnsY9ae8gohSPxWYluzUQgjfzeL3hlBzJgDPNz6AFtPaDDqdJiDa2DM28XMV+7kttteY/HBQqoGVHYEUz4XKJ/J2sy4wTW5ddoJCk6uZ8pX6zlvCaBKqEf28jHjl5/BqhRdISmL9iw71m0hxV4mjHzs4wphJAXPaHCKfxNYNut7Fp+rhTl1Fq8/9ATTVqfiX+UiUVbsK78gG8aSUxyIX8K3k37lWFBdDJkb+W7iL5yS11wn/oRPkD3oC9k9ZyyPjxhDk3trcWRPeumpSUNAdUyKfQbW5M55meQdXsZH32zBfRmxl0IR/eVyVrkI1y57jr8Q00cCCAlysvuH9/h8zl50AUKiJj05u3/ik5FdGRNXg5pH9nFKoxyl8h0fJaf2SXz8yDtzjhJUtwYZ8dN5b8FxLFYTpoBqmO2HWfTeE9x+y+PM3JJJkN8FYeSbH6Qgyf5P7F7H4pk/8mtGNYI9+1kw7kNm7C7BFhiKzb6HhZ+OZ/ZhzQVhpHBibjyJS+DOfu04u/xT3n/3M37ek1sac1ofcX+jOOoCKslrKbSutHji9nalf6Q/7ksKnAKFz7xZyWxcOI0ZSXmS/1I0pWB7933JlHniG3/FvzJ+Zf6vcA7feVjKgT5iOE2Kf8VblDgICsC+/StGdR4m/txH0hb5u9SI+kaviLDKue1KXNiTJW87XwyvyYDJ+0jZHM/2Dt2JrqXD7pIdmCvhWlmPn38xO6c8QVS3t4jPzCZh1bYrhNGftq8IcF/5ftI/CF1OxZxqFS4o2DSR+5vex8JzGg4tm8HkBDdWi9SvSuJVsYteFE163HT2RHQjWgRnqTsr4TdDUFXyt/3A49EDeXdjHhlJ8WyVhtWXMKrYH74gylPrPMhJe336tJAO+OAWFrwwkPs+20tgoPHChn1AJ6RyflMS6xHDR0bQNUDLjb4JQmMy4dyXyGp7O3pF18NReI7dM57hvmcWEPn0TF65JZi8Ii+mKlU5u+RJ6jZ/lfSYv/Hhq82Zc/+zTD3kEDILwZS5hCcadGZWs3Ec+FTHvId68cjYg0ISDkkYSbBzkmCbw7g9tipat5vTR49ycMHDPPXaLkwiGl3OHcx+9m7uufee3//d9w2p8lmLKcjn+DaTg4KjR0hLmMaoF9egDdrPT8/fyx0vv07SnixMl3pRZ8GcvYRvpvzAjLf/wbw16TK2XgLGRcInt/Pwm4cwFaZx9MgqPh39PIepwskpfXjxm7X8/O6zfL4oHT/psstDOkBDESkHDvLrS3/hr6sOEvfyyyzWd6bq4be5f8gHLCvU4k6peI2J+3PJ2TGZIY06MivwAcZ/PxbzU/3o8dYWjP6S/FrpJownmNujFs36ptDtzcXMu20ut3WYIclprNwv/qHozv7M43U7MLPOWJZ+VoXZN7/Kmra9iWpkwJ56mLRDP/Pm0++SaZZuIDeFlJQ1fPrYS5zSuVkxpj+Tl61n3JjPWHQ2lV+eGs74eSJonpzGqjwPNu1p0lKSWfTgM7x/VEeQSGevxiRdVg6/DqtO41tlvW98x9jm47g/dhoUneZYJba12TRkn86Stx2AsBhaBXrx6LXYqvqxZ+IwGnSYSsADE5k0tgHf3tyON5IcBInAvhIazKHVOTH/LzTo/DkNPtrHhJrzGPvEvbyxxyOi/DzLxo/ji9c/4oPP1nHOq3RgARSs/Zih9/3AcenUDD73MVXiqLwY0+oNFB7by5HVExn1/GpS1r/BHd9qCO/kYcIDPXnl1zwChDgr9tUYpiZnciYthfX/fIxX5tipemgqrwy+i5ff+pldkidHjv8Jn0j4u86fIK84k9TTrejRIQiHWwpYcHXOLX2C+p2/ptmE/byj/ZaXnxnFuNNG/DXix7K9XYSy5Utz1my2U3A8mSMrP5OYXg0hh/jhjpZMXrGat5+VtaW7sGnOcy7HzvlziBjrgL/kvVZjlrj0ER+Fsva0RL4a/QKHtCHsn/oIMXe+yoSle7GLYEqZ9SD1Wr3M2ZgXmTy1P2uHizA6L0LG7It/koUfishOOUbK6gk89lISOrfE+6jxfD9tHH97azkF5xbyxjMT+e79DxgzZb3QtRR4hRN3JLCY3liSXuXpn1JJ3/Q1jw+6hw93egg2XRn3GH1z4DVxVCk0leZ1oE1PXvxSElp3J7KOnpJLL8QV0WnUbmPhFxN48clX+duUNZz3SOxJN3di6wpef2YSy7LcBFapUan/tdLIlZ9D8rCarzx0UsVWROrximJ4AXuyHVcWU4mD0vwaXoNWH1Zj7MZJ+M9+mvc3tOZF4Tqvw42xEhv4XaGylJyvRvrPj1O3w1fU/+AgX4R+zVOvbqB9z0hamDR4bNUo2v2lD64V0W2FjU+3ZsiBh1m24l5Ode7Inats0nzeWPsG6fN92GoRezJSOS55VZ5TjSLeC1h+Ry3avVObd/e8j/an0Tw/aiIFftKQmYyVxKubAJMOjeMUCQkZypEPGpq8wnC++U1j8sOx5i90uO0QDy2cyfCMJ4gYuYGASk64XZsoUm5/czRhyBvf8PXPcxg/qAoZARZ2TZ7B4kyPdKdl77sCoj4dp9mcuF16PegU0Ylg7Y09D6gEkl7n5Ej8Gk7UrEX+8tcZ0aQjA34K5NVVu1j0aiz6nGLwq0LBiqeIfNTNT/t+4oUBrdClp5FMGPWlC3YXJ/Je51HkT97JdyObYqkRToCoch7sQbhZg8tsoihpLatr9SKysY6iQjd1OkQTqGzmzu50kq5Sv2ccmUMXkrhjJ7t272DlNx8IwU7i2fBAHAUJPsfvIB2FsU0vmptPQY8oAhbNxfLKD3wrBe/+QZIElxyK04r9Mo7XJXZwS6zUp0VTG26PEW/eetbMh6FPRuIf2IKW9SzSpfShW+AvDDv7DV+8dyvN5POhIaLIPZd7wIPT4UfDTs0JUc43JqQR8vBbvPbQAzwwahR1czdJYXMQHN77yjX+cxyPtVzBMwNeo+7ELUy9owmW0Cju+LQ/aRPmsjrXKyLsHAtHxzKmzkyOnhtDt3pe4t47DK9GYgkI8e2XUDOOc7/I20bjmbyd6SOb4F8rgrbdZI2dI2lr8FLSKIbWfg7OMoSI1gZK/NoRVtMsex9E47NzSLxzEx+PaEBJtYZoVkxnyyNxfCb2JziEQK1Xuo1GNGntXxqT93ZvhcXrwWhzsf7lcEYzm5SjLxBV08Opg/KGm5qiCWhaqW1dJW6qtu2AV/ZAzCDuGtSNdrWD2P/lSAa+bmDSlgnc0dhCSPu7uPsm+PTLBAqVo5Dy+Uuhs4WSJYTU7fGTfCKF6J5moYR2bQS7YeRNnQjMOkL1gfcR3Vbe3KkFIVqNxEY+m9fMhSF9iQnS4bX62keL0js0L4XHKQK0TV8a2BRLHCEreDi/jn+EAQ/cxa21JCS2paKRxqFiX7WgXog/9dqFIc0ZbR8KZtr7Rp5fNI03PniUW1q0p8Wf8Ym7BE/9GFp4U9hfvye3DO7BgE4NyF3/Ml0fyeCr7V9ye5OqVG0TQv7+avylZzP0FZyidzs85XK2oxQQU1hPmpiPSEzHELr4G4o+yGPcCFkL1QgxQ4m7Pk1bwJmDtbl56GCG9WtNFWMha33GRxOaN7TKXvvSzbaUT4zvEjd9LG89dxvZs0bR4zkTM/fO5/k+zTHtWMCB2FtpF2zE4/DFP92FH6SYt+pOXVMq3NyU01MOMHDWdEZFy+vhfsx7aQdDv/mUu3rL75ZAEW2Ifx3Sxa8k32YhbMRHzJ8qnffXbzKSA8RtSserb1bextL4Gp2+OfBaOEqBrlK+NeBwnCMxfitER9FSin35y0ccUm86cM8nM5j6fEvYtZ+9Sidd6KLF6Nd5dkAYTYKCyIl/tRL/e6RxLT+HJrAqR6b4ysN4cl0BNOzQsoIYfoxbquouOyOiw+xvZ81fJQ5OTmb/glupZ2tAh+aB5NSMJaKpHpehEm4TG7gvu0pYyfnsX54kanQWU7dNZETjEKq1b0YdahIV2Vjy2w/voSk8NWisD66VPdtT2DIHIptZqFUtjJHL/1pqD5dbcWQZboB9NSUmEZYV2Wo0/Ws0plE5ThVxGGRi29t9eeTwl+xfPoTaYqs2flnsDb2JqBZ6nC57JfF6tvQUtCdnI/HrqvN093poJGB883QLEVkaTm/5WepEDaqEBNLpvtd5c2wUzaWx83U987WJIgWKMMrPpkQfxqBXn+J2qxnv6WOkSjel93XFo86MJ3cjiQlOAvV96Nwl6PdzojcKGpFb9kNsSpAi2/deXn97HGMelr9ne6naMIDi3GJcWjPagg1MeeV7Bk8cy+A6xawZN4w2D27j+YV/Y0jtQA5MeZpJYe/w/oBgzmY68JSkcmI73BXdBpMUSuVU2ZYNy0uvWQq3aLCLSnXnJRC/DAZFSQfpLaK48ZeMfaoj9evVoWjlayyrMpJhrYxkYebQV5WMryjpwjTiEvZTy3yC1PZPMTQ4kF6P3kkHV165iwOV4lWlWxfMm9ax3tSTzmFCqAY/MlcuZAY3EdtJCrYEYWbCOja1MJOW2pS4fzTCvimeeQymSztR5BWdvtTJ30/HER8Pwz5/keF1XGTkF4uYy+MEoQQGaSnJu2yNISH0fvQWUieMYWXnsbxwS1UyzhfjdReRm1sog5aInSBz6Vs8sWw4X4+LwpKbS26Oh5vizpDxZBh56at9+uWW6l4SPhnNrB7jeHtgFdKzPHiyk9i8Ae7vHoZRufvPnc+uDT+QPzCCLjYtLp2LU3HL2da4CHvVkfwjPI/E9YugxXlOWh/gHx3Os351HPTpTHvpUJxGSZLdG6VDGURkexMujT/Fmz7m0elDmDQpkqAM6fqHNuaexc+z+NM+0vHIfiqzrVPiInM9cWuklsSGoXNqKEr7nk//uoGosS9xRz04Xyz+tp8jt0iM4y2RjkeR9pdAa0Gbu5zP7/ueLmPf5OEmGs67ZJ0H9rKNAUR2NFFgjaGhNo6NCTJPtxZYlSOZZxaz6Ae4pVsnQiz+FFayD6f98tuERUQVHWHTho0weAzPDahBRkaBCIk8ck9DdREsjpw4n74aJIKwKH0DiRvCaXHqBN0+vY2a1fsw6u72aIqL/pRPlBsalOYqYb04PiaCjmYdBSVbmD7mM6Lf/Se31/aQ6dDgPp3CYRGrXVsb5TMVxLjmspzVSOdddJS4pAxq65LZ3/wlHm6QQ9K6BTCwS2k8OU16CsTfK2TciFbKLcLmSu3qEUfmJ65lbZiNc+mt+GKkmVr9xnBX7eW8//hSRn71KoNDnJw9fw7NTd8R98M9NDWaOVgZ/0h0uAv3smHDOarl5BL6+FO0zF1Jwuba9M08jt8/xxKWs5K41XBPz5biSZ1w4h6x10k6PDmGh1vpyckrwW0KJCBAhKDFjEaE1qU29ugtN4yjuArfDgw2Y8+JZ+Mv8FCsFLCKrjH12imQIt2gTWeM59M4nevGYPPHveo9jvW5nzDNTr6pzP9O4cXcS+aQHThPXiUPNVocZ+MqiOF2Ejf20iJ/EVprMPlr3+ae727i09l9CClQbjs/y/atEsc9Iwm3CRfkV2IDUeZF5QdEm7OM8fd+z03j35I9ucmSZrdo52ZW0Y/I1pIHzrOsHP9X1vvg2hIRWUZra/q9Ek7iW6P4+y+p+Hd8jtdudlEgey2HP2tflwhbH7bySI13XBJbTq8/rh2f8tyEpnzwUx+qFAoPuAo5mbqt1FYd/WSsksrjVWuUhleI/2f601Ved16Fp0uKNNTp9xwdt7zJcx9s5JyrFaNG98AhNc2HJroOUXQRzjy0oT1ls9lkEkJwsB7lwINGaU8ug9ZkomhrEnGZRXi6dCWy7JxoKZQHNPnQUtcEnRDdmUQSt0jzF90airy07v0INff9wpoDztLDulqzEHbiPKamtEK7/XNu7jyCafl3kZC8mqc7VSE7fSk/fpjC7c8OprFGyMAaKET4Cz9KoYvqZMLuMAh5JpEwT7r07h1E+comjBKkyfGsy+5OjHInWrELiWHRFiZSp9/JjHqf8nJnL7kOE0iwVz6+JHBePImSwKFNbuaBbmYyC+wU5RdUcLeEEF7JGbbES9UdEEFEgEL06/npEyky3WOIDpXgKU5nc6IUt4MBxAzvgiH3PPs2fIe7TwxRwdoL52Ivg84s5C9Ca6XfwwzvU4W8fI90m4XsTlgI0l1H1JF1ZovAvWSNWUVaik4sYbG8pd9t/QkzSjIo54+9OezeIQWsQ3PC/IpZ++N8cc4t9K4izUjp3B7sRQXkS6H36Zcu1cg5NpfvvnXw4IM3U8fjQBvoR8qcaczldqI7KMVSj7d4pySm0gx2pIpOK01QGkkJOyAohqED6lGQuZlNScqc4Qy6rS7FGbKHxTCke0cCZR1anYPD66aS0z2KLsqdbOSzadYk8oML2P7pq3Qa9CWFf9nCsdPP0E5/4aaBymzrNBop3ryRRQwnqoNBkldL7vpfmC9kMqR/HYoLHHi1UmLydrBD+LNLeDNsWiFnZYll0FmNZK+YyddCKvcOqU1BvhCW7hxxc6ZzUtYZFSqkII1I4eYElss8EeEWNBY3exbMI4nuRHYJlOYjt5J9FP9+AehFSAPjyownbi2MuqMXNcTeHrMUr52bWEdbYqJrkL9xTsW+6mgl26OnaEuCkFYxNbsNoqchlwJ7EfkFrj/tE7u37PqYpTCie3v8LBaK42bw3tFhPDCwOgV5HgxGETO//EyGiOOIgIrvMtJcnrNOA67zG0mSPZtq9+OhnkGytiQSRVz0io2QeJLPSDO0NU4mHiY5YNVJ4aw8PpzObDZLx8vZavQY1kkqbwEuKbjZK+dI3N5N/2gbOReSAE9xvnTsOhGblfODw2XEfTaBBLFZWP/h3B0mfLZ3M/Fn8tB36MODLU0UbkuQGBtMZLgZp1v2lSq+PNCKm3rUwa48ZFZvwH3uCMl5bSReAnE7S363cbAU36wbx1GV8q0SK269FMk4fpI8jmpv8H2NqcuNtlYdOnCa8+e1BHmWMOzeXrzxcH3y10yv1P8OgzQ4l8zh0l49DwOssu4KY7i8IBJjonensfzrb+Heu7m1tpZ8XRDu/d8zfa5yELI9AZI7hZXYILOofAIqOZ/569dM517u6Rci/KvD4N7JvG9EoA+LKuX54rMrWeqTa5vRTDkKUlJEy0fH816vo0wY8TI/HCmQmn3j7euUXKrYVsLTl+WvS1tE0vT3OTr8PoY20JHnsULWapaJ+YbEhhMkY10tXh32AnasF+NKHna9ah6KwHUVYez0Ih+805etn4/kxdkpCBv7FEQKrkkUaUz+mMXJgRfvoNDrkX1LS9qXHlX0uM2yKREFttKLsy5Cg15Twp6kJM7IYppEdKXpxcOkehsGjRRGl5Zg6/XrMwU6s4G8zYmipgfStaMFe14xxg7duSX0AEvXHC1VmHqtkzMH91Hk34nhf/sbc9Yu4fMnutMgUDnEacR+YDMb6U2nNiYpFv4Y81Yz6dmZFPeOIiZUORIj+9ubwEqZI7aLFZ3Hi14E0Om4mSSHxxBZW7kFSoNZuunzS15nScvv+KhvAA6yOZFaRMnBLcRXMr5XgsK+PV4SuJfkWHtM+SWXJeElUC6gzJeiIkVkYLeu1K3iInHmZvIbSDffuTvNg/xwCXltFB7v/e6TDKouyVSwiwSp4x1jYmksAX2lJtKi8+ayVTkSNqQbETYNdq0/nvQlzJpuZ9hfhhMeaKPk8jXqdXjPnCSVJrRsHozL4ZbCI4R7dC5zJZd7Dh9APechkqXoNK9TE6sEj+J+nSUAmyOfAo27Er9ICO/ezq9CYq3DpHDoQnHv/Ypxb22SNj+G7lWMuJQLKY8nEHe0I70iQjFpxVc5IpBFL454ZChtLNKlHBIxe9TCffcPor1ZfL0nQbr+3sR29UfrVjrqQyRKsakfEUXTQKt0x0fZt04WOfBB3v3wA9avncjjPWpjEgLySgfsya/Mtsq1WsXsWv+TCNZYYoIlLkRAn0nZCU3DaCFV1ulWLp62cWrJHOYRzdBbxHHlHiCokfgqYp9yxWHndrQJFhvbapAXP4kv5jiIio6kvsSe15sn8whD9o8htqqVrOWfsSXdRVZHian6VpzFR3zv48JE5aCVHLZv28ASIeVY6e6KS7QYtRmsm/416cOe4N52Fk7tr9hXTo/Ej4jJXXFzxDAPcp/YNutiG6wcLf5TPjHgVa6P2akU/QEiZkQAeos4tO47aQI609FfOlj/6iLYPuWTmdncHNuZOn66CvJHuVCzfM5qJe9KtiaIgO3B6EejCPBInCUnsPZsFL2ig6XwScMnzVCScPGA2C5Us1mkwa4sPpTcTCJeeoDeLz5IzxAXRcILOunKU5Ilt9rUppa57FE5Yhebn4P8YrHfwcr5R+GHwk3xYqPh3DWkAUVFdo4lreFQ8GBGDGoiRSuXvetnKkpOYkHywqgnM2EVSQ2VU/167FJjDLL2k/NfY8Pg0dzRQkRlYfLvNg4VrroKB/5xjpL9VsK3TrGHcmpv/3rx34BudAsVm1UUkAKv24MuNJRQpOAWZbGo9708cuAJasrPyetmVOp/7WVzKM8suloeeu2SUxXF8OXQCM8Ub2WbiOf+bcOwaExY9Qf4efJcDipHR7r4oZWmwrcNysb5DUrOF7JjlQzYpx3thCh1oYEcnT0RoXZu7daFmoEWPJVy7S108j/F4TQ3bm0LRnz4pcjBX5nw02GQGlnR8Yfrt69yut9Hvpedufk9f224C3ewaRV069SeIGkSLcEutk8Zz3f0JaqLaAG99irxaqUkfysS8uLOCGrZJGZ85qEOnVHDiZQTuPPzafrgeCaPrMPc12azpVh8LoZQ7tI2/3aX5u/4w0pEEUS6/RN5ZuQjvLPiDIEhgWjPLmfWmqa899JgakgHu/SFaMIkOAa8nSAErlxVr8PoF4K2ZBPxcRlUoTEduzQnSLnYSy8Bc24BLzdtIcVuCG/EFRPk+6KkSqEx+GHWnCNhnSiEiHA6CSG4XSVo/WPpdhPsX7KY+AJRwBYjAVVqQP56Vq89TZHbLcXvJMtG1KT3kjy8hXmco0ACQ4fVvZ1ZX6wlq7YUup6RZM3+gSNGHSfWT+REvx5EnfiJvydZMDiOkbAhE27qg3nuRJbZGnLm5zf58nAYTdKX8oNE6uyP3+Jvh0PQFeRwtpLxj2ndksAShLfcSv9aOuXUrk9oRCy4ju1hB9LtRlrY80QDUtrVli6oJffFFDJ9+mFKdiUxW5Lztv41KJLi5kwTYj8UycCOZ/nyq6MYzJfd8VRG5gnKAZ3eXaiu3AppO8+qoU/w8x3f8NbgqkLehUK85deoJJW2WjWqCT1qdDr8/IKwmdNYMvrvrIn6J6/dLQWfAAIaQ3LCBnblSUJYzej2fULtVvMptFhLL+aryC99l+TikW4WcqT7MGDKmM3H32ZSr6PkqqzxwGffkOZv5nzicraG9SZGt4LXlmtwbItjoRSPPtEBFMv6MpJWs6PhA9wa60+hw05q/Fekx/ak9b7ZfH7KH/cp6cB3tOGOGDdfvjIfh1n201ym3biMhYcKS8/7e85Id1f7Dn4p8Cu9GNCnbaeewluyiy3SeUbf3Avn9FdY7AigRg3Z42EhIBGRfkE18B75ln/+fR3d3hjLX1oYKKigkystFIX55AkBa7f9nambS6hJMyIiJHCcUoBLDrBDSCK6ezfqHX2fsckiys7FY+/ZHRbO5piuOtV97GNJppCCot9+g1Z633x2rpcAGNGDHqFm9CGhZC4Zw+Mrb2Xaq/0IFsHg78NXsQuLEXVBvNT9AYP6Uk/rKj0lWDqyiJ7izX/CJy8vwGN1c3TDNEr69KZnyTImryumSBpgRFjn6Uzot7/DjI3n8SOWqPaZTPlirwjvy67T0sjvJZfm7CTWFTvYrRD7kOEMaWigWER6esJCDnbpQ+esVXxzUhqMQ7Iv+tG7aw4TX6g8Ppbm2/DsjWOpiLdb+1aRNV6wgldrkDjvBHukGz5kR2+2YHMf4IM6rVhaIiopP5cMn/zwI8c80g1vEI4bLk2octdN0RG2xB+gxojbuEma0pKifWyV4tn5pvZs/mSmFOR01k2RqtSnJ9HBZgzBNfHu+YBen0Qz6bVBVPXKGJfYeMo7y0Uk5ZN5QzhK7CH874tvYxcUonHuJykRYvvHkvrhWyQafDxc1yu8YgogiDz2zptN6uepDPPLpdjlJidXXvfl/4lHpBc5cMkcb5NkVPKwlu88bOlPcd7mCmP4Cmg0pc/Gk6gXQZov/fAZljzzCWeq5JHdN5bwowuZnGIhKNSHDeZnYymXgEq36KL0jLaS83o9eT8MZ0FmCLUl9qLDjvDuhKNoalT3ybVj722Cc+ujjJ13kpBAL6b6wxh8JxxMU574XJFxBddr30lHZS/bKrSV8qgD56X5++pSSjQF5J6TZkBEiktvZ/eEf7D8lEwQHU1E9lrm7z9BwrRK4lVy13kkkfgz/ekTfox/vJIgvFKVqhXm4WNsyEll0UdLSZdaYzY34aaBMZCdX3p0XCeawX1KacqKrxBGf1wUaXUUZZ9hY9JKJjwczYgn/86jjyVw15ql/KWJhiJ7DhknT5a+98TpLAqFsE3G8+yc+xnf/uNtvjiYK8l2lJ3L5/HF6jMYRaB4CjI4XfqJ/aRn2fFcx3k05dkJ+rRVLJjwIh8vkj/sTWTOwh2kG6Wz9PoR3uduzIcm8tILk5i09iQ1Bj/C8x1SmDYqkpgevajd6K/sf3o38UP8MTTvSE828WbvRnS4fzUN7+uC6SAcWPwNGxoOJMybTfIhmWPFTMYfaMPLvYzSiR9i/yb52/zPWFjvLsJXP8q9D49nyrtP8uBDj/DII4/y7McaHorMx9Cik/RXPsZvNISGhfEsnSaNZEwU1Q1XPq+jHMRUiljIZj1fP/kCk7vtYahfCns4QPzsnTS5rT57p08X5dCTbsEaSsR/7rRUEqSHSVp1li53Nis9MnEplNMKzn1J0inW5HT8XKbPmsIr1Vszus0Utn9yM9YCL+6CTfx6+RpdhRga3MVTLwYzfsgbfDnnO16v2ZFnG3zI6u8eooW87jK1Y8hL99Ag/h36toihe7jYYlYLdmY8SW3JvGoDH6rQL3GDbZja9+Q2kni9Z0M6jjnFwDGtyd8G62dM4aj4t5kji6PJ2yWMljJtdRUeH+gk4QMpcv170S1Eh704hV/elNe796arnxaHu5CUY7LuuB+ZXxzN42EaXClHWCvWi/sxjvqPDcSmqcNNTz5L2+Pf80hEY7qFt6HO8/u4a+9sbquWzdavlSMUvmzbVATLOZRrrDN+/ohv6jzNrcZ8qt02lhfqfc7Af8xm7nd/ZVjk09QZt4K5z7YhU+K/vCRS7qqw0V7sUnv/p9zZoQ8DF3fi/tYZ/BrcnYjmxlLy9LqFlM9D/N8GMOSHDrz8oIndP8vHPxrHutp9aWmtS78K9/ETw6vbSwniN4jw8hZLN6fEc/J6ps/+mW9fbEr4aBtT4z9mcKiTnDw71X34atv9ymMJVjI5M5oeUZc+sE4jYiuPhI/+hE8eH4qfvZizZ+U9q+bz0aIAhtxckyaxt0Hi2wzt2o+hK8O5LdwokXKQDXP20/j2tujLHX1ToJfu8mLOTmB+rTuIcK/nl5lSOLtFEyIR7XUXc+xICmxexuKTTbmnpXTJGWcls46z7us11HhyEP6VxMfwGnns/H4qmZHdiRWxUlxqBq9whYeGQ0ZxX+143ry5Jb1696Z231m02XqCx2oWobsKP9QvXMuvolf794qkis6II2M9K6TgD+nbCr1bEcipHN0vaTB7LiVD7xSB4aZuP5l6/VK+nLWA70TUNup9hGmJMxghvs8T+vdcYuO6d/YgoEVHabNuDEe5ixw+Y2Xr3TWESw5zcB/smzmOrT2fo5fWx9cweb3C80bxXG3a3f4Aj7ZykSlGdWushPWo3P8UHLpkjmeJLRGuue3vPvMwq1Boce+qCmK4Anjs6AIi6H2rhO2bPenY4zVSR71Hh9xTsHIm00614776dqre4sMGd4VSUm58j9TAQDoNHYot8Q0GdxrIo6fH8FDLYmH5JH6Zm06/u2vhV/9On1zbUgr8yd2BbJzwHC98Np+lXz3Ngz/2ZtJfwzHYfZw2uk77NrmjHa7dKyq2lQjOS2Or/l/6EmBuQ8RQ4aq3Jee7PcHyNs/S3Zwqf1jE9B3V6NnKTI2e8lkf8Zov8eo4epgdUqGWTDtKzxciRHbX4eaK8nDfN8RqdrD/lw94/fWvmT97HC/dO4thk0YRbVOeL57OrNiR3NlngtBTuc7wWr77TIgtIJi8g3EcOOOlSqMwWtUPkK6riAKHR6SXFYsrle27cqnTpS2hriLs0lUalYujRFE7hdAUWM0G3C6XiCiXfCSU4uMbOJBfgx6da5KTfXlh+GNQhJFF5rEXF5Ren2QxSgdTaC9NWOVCOI09D7PJIFnqpNBtwew5S/KOZHIs9WnTtg7BOMgVh2pMwXgztrL7lJXWnZoQLMr3yLatFNftRPtQF9kOA9rMPezOq01s2yqy3hL5jB85BxM4H9qBTjW15Lj9pAMqkDj7fSfK/g0eF8WGysfPKjZgEKLxN3rIKusufUOLMdBA2qadeBq2p02o5L+niENJKVTp1I7q7iKcJht6T4nYxSEBrhcbZLN3ex5NI5tjyi+47JEIskZbAIfer8HNe95n80et2RF/joYx3WlfQ0tBQcmFU54aUfAVrlGHJTiA/P1rWbfPTcuYaFpVFbGsfHFh2TzGgOoUpSay71gBgU3aEl7PQl5e8YXvKNPbfPvFLHZL38aeMzbadmmAzeXhxP5dlNRpSwt/J7lOsVt+MtvTg4nuXJvCzEK0fjYMXin6QsxuSXdFhJvF3vnK9w9JvGjP7mGfqz5RzfzJznNh9CshOfEE1Tq3pZpLOmXZms5WFfcZ8dehHCwNWtGhvj+uYuU6HI28378S2xbilE4k52AipwI7EF1fQ2a+szRHzIZcUhPi2etuTnRUE2qbndK8OIQOK4JyaD+E8zvXkKJrQrdO1fl1dG0e0E7j+Ec9RIvKXoyBOE4kcUj2EtmqKiWSZtnJCZwO6UAXiccsaeV976NsmjJoTIFSPT5i6C3buX/927Tfv4X0Rj2IbRWEwVEijU5ZTFfqq0B0IoLNIunKh7Bisz/nk0KvSfx8iK1pfkTHNKTkvPg52J/0rRs4Y21BTFgo9qKT7NiSTcOo1gQKH1x2yYZAU/qQzd9zVnxTqEev9xBgcktMyx6UtUie7ymoS4zsPTvXKWuxk5xwjOAunajjzqPUnZXGR4DER/GF+CibuRTGAEz2ExzYdZSCwMZ0aFMDc4nYVpLgavyTVSyFS+8qzb1s5Xok8YOeEmx66ehLFBMaSd+7G0+jtjS1iD/sWsyBQXjPbmfd+mPYwnvRtZEVccCF7/0qfUDlZTbW3UiOEviMFY+s10TGnq0U1gunbbDwq6/TVMItBm0eaac0tGgWSJ4Y/0IkSuNdqf8LS68pumKOq+Sh7xiuAMpjVnSZ7N+Whq11R1oEesk5vZ99+TWJDpPYEcd4KsmXK3FhT2e3xXPGrwU9WgaRV3RO4iWbBp2aYS5UeNs317q0evJPn5MmtTr6fStYkVKHmL5tqaUtJs/nF6Vdr30LpKb5sFUFsVXgMWHRZ7FvSyp+YR1oFWog6/hWdubVoUd4NXKlMTRUGq8Kz+ayb2sm9buG4a/Mr7izojwUAejKOc1ZbV0a6Q/y86oU6sb2I6KWhnN5wjcGGffMNvY6GhNeX7TDJecyr/ELYYVQJMiMekVfOHBKcSr3Ya0BkyhVt/2Pfxmn8tRXo9aN/YqO7l8IcZjyPATlG3YdMu+lqagoZpPOK393Kgco0ZtMaF126WQvrE55XVmvwyEd5YW/lF5UrZOO/eJ7KsPVxr82aDEoYs8lvij9vOzLLArd7qjY/hJURqN04KVzXwaNAaPhJNNHdmNar/VsHdO4tItxO65lbRfjwytLurim8lAeFmc0SIeqPOH88m8Ovga/KN97pdjtYiwrTwc26SSOfvNL5Sj1o8b1ezKUzi0dhNju0mWXjisxrTyR3V7RNx1fxBW2vRAXeukmy30JosxjkD3qvC6cDucf+M6eC+MYZHy3I473I+8g/Z+7+XqIVYr5BVJVcsggpORwXti7zmhGJ/M6Lpn36vsQUewfxKnPOhC78gHWzRlFU50Wl1veX5FNK/HV9eKP+KR0HyJgfucLySEl/7yyTuVzYiflOSuuy/xYHlfP2YrXohxlKs9tfzg+LoXy8EijNFgesZ3j2vincii2MKK5JC8U/LZGl8xXFiO/oSIb/6k1VACfsXItY0veCNU5Zf3lcTX/+5hD1nRteVgJlNwXG3qFK0uXIPY2ipj8LXYU+LRBRSjjjt/2JJ8V/5XnbXmPD67VKs+ncomdZAyj1iPzVZYLF3G99q0EFcTWFbbSmzAptrqEYyqPV+XzisYoP3+FeSh5ppccdiv3HMprHqfEwKWcKHMbNc7yfhJc57fkq/hvg9avGhz6hLt7TaHz3A28HanlbEH5YFHxfwUd5pAaFKx+jpvu2MfouG8ZXcdL9o38imytHxbjUSbV7867oxaS8VYHcpUut+xlFSpUqPhfgO6pp556vexnFf+j0Bos2Pf/xNdTVmJo3Y6SzCxctdrQONCLW62K/8dQusQcdvw4nimzd1OvU2Oyzhhp0LUxgZ4bc4RGOcJrcezj10mT2RzUkPrePDIMtWnXKLD0InoVKlSo+F+BeqRIRSkUYaRcd+X1ODHqNJQUKw8hU0Pj/w+IMLJaSr8NXuN1Y9B6KSws+cOnqP8QFGFktSpX75fO43E5KP7tFJUKFSpU/G9AFUUqVKhQoUKFChWC63swkAoVKlSoUKFCxX8ZVFGkQoUKFSpUqFAhUEWRChUqVKhQoUKFQBVFKlSoUKFChQoVwP8DLu0RwH6EG80AAAAASUVORK5CYII=;" vertex="1" parent="1">
                    <mxGeometry x="123" width="581" height="38" as="geometry"/>
                </mxCell>
                <mxCell id="3" value="" style="rounded=1;whiteSpace=wrap;html=1;" vertex="1" parent="1">
                    <mxGeometry x="354" y="38" width="120" height="60" as="geometry"/>
                </mxCell>
                <mxCell id="4" value="&lt;h1&gt;Datos&lt;/h1&gt;&lt;div&gt;variable1&lt;/div&gt;&lt;div&gt;variable2&lt;/div&gt;&lt;div&gt;&lt;br&gt;&lt;/div&gt;" style="text;html=1;strokeColor=none;fillColor=none;spacing=5;spacingTop=-20;whiteSpace=wrap;overflow=hidden;rounded=0;" vertex="1" parent="1">
                    <mxGeometry y="60" width="120" height="160" as="geometry"/>
                </mxCell>
            </root>
        </mxGraphModel>
    </diagram>
</mxfile>